<?xml version="1.0" encoding="UTF-8" standalone="no"?><!DOCTYPE svg PUBLIC "-//W3C//DTD SVG 1.1//EN" "http://www.w3.org/Graphics/SVG/1.1/DTD/svg11.dtd"><svg width="100%" height="100%" viewBox="0 0 2134 2134" version="1.1" xmlns="http://www.w3.org/2000/svg" xmlns:xlink="http://www.w3.org/1999/xlink" xml:space="preserve" xmlns:serif="http://www.serif.com/" style="fill-rule:evenodd;clip-rule:evenodd;stroke-linejoin:round;stroke-miterlimit:2;"><g id="Layer_2_00000120533857385929906760000016930848653667568563_"><g id="Request_Green_Logo_for_Background"><path d="M1357.01,1177.64l451.161,-450.044c33.903,-33.53 52.903,-79.726 52.903,-127.413l0.745,-363.611c-0,-18.628 -7.079,-36.51 -20.118,-49.922l-865.439,863.949c-70.413,69.667 -70.785,183.296 -1.118,253.336c0.373,0.372 0.745,0.745 1.118,1.117l610.241,608.379c70.412,70.039 184.413,69.667 254.08,-0.745c70.04,-70.413 69.668,-184.414 -0.745,-254.081l-482.828,-480.965Z" style="fill:#008b62;fill-rule:nonzero;"/><path d="M1791.41,167.653l-1359.82,-0c-109.903,-0 -191.119,83.079 -191.119,196.335l-0,1418.68c-1.491,99.471 78.608,181.433 178.08,182.923l4.47,-0c99.099,1.863 181.061,-77.491 182.924,-176.59l-0,-1271.52l904.557,-0l331.199,-329.709c-13.412,-13.412 -31.294,-20.863 -50.295,-20.118Z" style="fill:#5bbe91;fill-rule:nonzero;"/></g></g></svg>